<svg width="22" height="27" viewBox="0 0 22 27" fill="none" xmlns="http://www.w3.org/2000/svg">
<path d="M16.4995 17.6335C16.8941 19.4705 18.3295 20.9051 20.1665 21.2996C18.3294 21.6941 16.894 23.1294 16.4995 24.9666C16.105 23.1296 14.6704 21.6942 12.8335 21.2996C14.6702 20.905 16.1049 19.4703 16.4995 17.6335ZM8.31689 6.81616C9.15244 10.7072 12.1915 13.7472 16.0825 14.5828C12.1916 15.4183 9.15247 18.4575 8.31689 22.3484C7.48135 18.4574 4.44128 15.4183 0.550293 14.5828C4.44128 13.7472 7.48135 10.7072 8.31689 6.81616ZM17.4165 6.63354C17.7125 8.01113 18.7889 9.08764 20.1665 9.38354C18.7889 9.67953 17.7123 10.7558 17.4165 12.1335C17.1206 10.7557 16.0443 9.67942 14.6665 9.38354C16.0442 9.08771 17.1205 8.01114 17.4165 6.63354Z" fill="url(#paint0_linear_1112_1435)"/>
<defs>
<linearGradient id="paint0_linear_1112_1435" x1="0.550293" y1="15.8" x2="20.1665" y2="15.8" gradientUnits="userSpaceOnUse">
<stop stop-color="#6E64FF"/>
<stop offset="1" stop-color="#9E0FBE"/>
</linearGradient>
</defs>
</svg>
