<svg width="1440" height="1054" viewBox="0 0 1440 1054" fill="none" xmlns="http://www.w3.org/2000/svg">
<g opacity="0.5" filter="url(#filter0_f_0_1)">
<circle cx="159.997" cy="623.75" r="135.076" fill="#6E64FF"/>
</g>
<g opacity="0.5" filter="url(#filter1_f_0_1)">
<circle cx="1260.53" cy="51.0762" r="135.076" fill="#6E64FF"/>
</g>
<g opacity="0.6" clip-path="url(#clip0_0_1)">
<mask id="mask0_0_1" style="mask-type:alpha" maskUnits="userSpaceOnUse" x="-176" y="23" width="1794" height="1793">
<rect width="1792.72" height="1490.19" transform="translate(-175.514 23.0649)" fill="url(#paint0_radial_0_1)"/>
</mask>
<g mask="url(#mask0_0_1)">
<g clip-path="url(#clip1_0_1)">
<mask id="path-5-inside-1_0_1" fill="white">
<path d="M-115.757 23.0649H3.75755V142.579H-115.757V23.0649Z"/>
</mask>
<path d="M3.75755 142.579V143.824H5.00249V142.579H3.75755ZM3.75755 23.0649H2.5126V142.579H3.75755H5.00249V23.0649H3.75755ZM3.75755 142.579V141.334H-115.757V142.579V143.824H3.75755V142.579Z" fill="#F1F0FF" fill-opacity="0.1" mask="url(#path-5-inside-1_0_1)"/>
<mask id="path-7-inside-2_0_1" fill="white">
<path d="M3.75684 23.0649H123.271V142.579H3.75684V23.0649Z"/>
</mask>
<path d="M123.271 142.579V143.824H124.516V142.579H123.271ZM123.271 23.0649H122.026V142.579H123.271H124.516V23.0649H123.271ZM123.271 142.579V141.334H3.75684V142.579V143.824H123.271V142.579Z" fill="#F1F0FF" fill-opacity="0.1" mask="url(#path-7-inside-2_0_1)"/>
<mask id="path-9-inside-3_0_1" fill="white">
<path d="M123.271 23.0649H242.786V142.579H123.271V23.0649Z"/>
</mask>
<path d="M242.786 142.579V143.824H244.031V142.579H242.786ZM242.786 23.0649H241.541V142.579H242.786H244.031V23.0649H242.786ZM242.786 142.579V141.334H123.271V142.579V143.824H242.786V142.579Z" fill="#F1F0FF" fill-opacity="0.1" mask="url(#path-9-inside-3_0_1)"/>
<mask id="path-11-inside-4_0_1" fill="white">
<path d="M242.786 23.0649H362.301V142.579H242.786V23.0649Z"/>
</mask>
<path d="M362.301 142.579V143.824H363.545V142.579H362.301ZM362.301 23.0649H361.056V142.579H362.301H363.545V23.0649H362.301ZM362.301 142.579V141.334H242.786V142.579V143.824H362.301V142.579Z" fill="#F1F0FF" fill-opacity="0.1" mask="url(#path-11-inside-4_0_1)"/>
<mask id="path-13-inside-5_0_1" fill="white">
<path d="M362.301 23.0649H481.815V142.579H362.301V23.0649Z"/>
</mask>
<path d="M481.815 142.579V143.824H483.06V142.579H481.815ZM481.815 23.0649H480.57V142.579H481.815H483.06V23.0649H481.815ZM481.815 142.579V141.334H362.301V142.579V143.824H481.815V142.579Z" fill="#F1F0FF" fill-opacity="0.1" mask="url(#path-13-inside-5_0_1)"/>
<mask id="path-15-inside-6_0_1" fill="white">
<path d="M481.814 23.0649H601.329V142.579H481.814V23.0649Z"/>
</mask>
<path d="M601.329 142.579V143.824H602.574V142.579H601.329ZM601.329 23.0649H600.084V142.579H601.329H602.574V23.0649H601.329ZM601.329 142.579V141.334H481.814V142.579V143.824H601.329V142.579Z" fill="#F1F0FF" fill-opacity="0.1" mask="url(#path-15-inside-6_0_1)"/>
<mask id="path-17-inside-7_0_1" fill="white">
<path d="M601.329 23.0649H720.843V142.579H601.329V23.0649Z"/>
</mask>
<path d="M720.843 142.579V143.824H722.088V142.579H720.843ZM720.843 23.0649H719.599V142.579H720.843H722.088V23.0649H720.843ZM720.843 142.579V141.334H601.329V142.579V143.824H720.843V142.579Z" fill="#F1F0FF" fill-opacity="0.1" mask="url(#path-17-inside-7_0_1)"/>
<mask id="path-19-inside-8_0_1" fill="white">
<path d="M720.844 23.0649H840.358V142.579H720.844V23.0649Z"/>
</mask>
<path d="M840.358 142.579V143.824H841.603V142.579H840.358ZM840.358 23.0649H839.113V142.579H840.358H841.603V23.0649H840.358ZM840.358 142.579V141.334H720.844V142.579V143.824H840.358V142.579Z" fill="#F1F0FF" fill-opacity="0.1" mask="url(#path-19-inside-8_0_1)"/>
<mask id="path-21-inside-9_0_1" fill="white">
<path d="M840.358 23.0649H959.873V142.579H840.358V23.0649Z"/>
</mask>
<path d="M959.873 142.579V143.824H961.118V142.579H959.873ZM959.873 23.0649H958.628V142.579H959.873H961.118V23.0649H959.873ZM959.873 142.579V141.334H840.358V142.579V143.824H959.873V142.579Z" fill="#F1F0FF" fill-opacity="0.1" mask="url(#path-21-inside-9_0_1)"/>
<mask id="path-23-inside-10_0_1" fill="white">
<path d="M959.872 23.0649H1079.39V142.579H959.872V23.0649Z"/>
</mask>
<path d="M1079.39 142.579V143.824H1080.63V142.579H1079.39ZM1079.39 23.0649H1078.14V142.579H1079.39H1080.63V23.0649H1079.39ZM1079.39 142.579V141.334H959.872V142.579V143.824H1079.39V142.579Z" fill="#F1F0FF" fill-opacity="0.1" mask="url(#path-23-inside-10_0_1)"/>
<mask id="path-25-inside-11_0_1" fill="white">
<path d="M1079.39 23.0649H1198.9V142.579H1079.39V23.0649Z"/>
</mask>
<path d="M1198.9 142.579V143.824H1200.15V142.579H1198.9ZM1198.9 23.0649H1197.66V142.579H1198.9H1200.15V23.0649H1198.9ZM1198.9 142.579V141.334H1079.39V142.579V143.824H1198.9V142.579Z" fill="#F1F0FF" fill-opacity="0.1" mask="url(#path-25-inside-11_0_1)"/>
<mask id="path-27-inside-12_0_1" fill="white">
<path d="M1198.9 23.0649H1318.41V142.579H1198.9V23.0649Z"/>
</mask>
<path d="M1318.41 142.579V143.824H1319.66V142.579H1318.41ZM1318.41 23.0649H1317.17V142.579H1318.41H1319.66V23.0649H1318.41ZM1318.41 142.579V141.334H1198.9V142.579V143.824H1318.41V142.579Z" fill="#F1F0FF" fill-opacity="0.1" mask="url(#path-27-inside-12_0_1)"/>
<mask id="path-29-inside-13_0_1" fill="white">
<path d="M1318.42 23.0649H1437.93V142.579H1318.42V23.0649Z"/>
</mask>
<path d="M1437.93 142.579V143.824H1439.18V142.579H1437.93ZM1437.93 23.0649H1436.69V142.579H1437.93H1439.18V23.0649H1437.93ZM1437.93 142.579V141.334H1318.42V142.579V143.824H1437.93V142.579Z" fill="#F1F0FF" fill-opacity="0.1" mask="url(#path-29-inside-13_0_1)"/>
<mask id="path-31-inside-14_0_1" fill="white">
<path d="M1437.93 23.0649H1557.44V142.579H1437.93V23.0649Z"/>
</mask>
<path d="M1557.44 142.579V143.824H1558.69V142.579H1557.44ZM1557.44 23.0649H1556.2V142.579H1557.44H1558.69V23.0649H1557.44ZM1557.44 142.579V141.334H1437.93V142.579V143.824H1557.44V142.579Z" fill="#F1F0FF" fill-opacity="0.1" mask="url(#path-31-inside-14_0_1)"/>
<mask id="path-33-inside-15_0_1" fill="white">
<path d="M-115.757 142.579H3.75755V262.093H-115.757V142.579Z"/>
</mask>
<path d="M3.75755 262.093V263.338H5.00249V262.093H3.75755ZM3.75755 142.579H2.5126V262.093H3.75755H5.00249V142.579H3.75755ZM3.75755 262.093V260.849H-115.757V262.093V263.338H3.75755V262.093Z" fill="#F1F0FF" fill-opacity="0.1" mask="url(#path-33-inside-15_0_1)"/>
<mask id="path-35-inside-16_0_1" fill="white">
<path d="M3.75684 142.579H123.271V262.093H3.75684V142.579Z"/>
</mask>
<path d="M123.271 262.093V263.338H124.516V262.093H123.271ZM123.271 142.579H122.026V262.093H123.271H124.516V142.579H123.271ZM123.271 262.093V260.849H3.75684V262.093V263.338H123.271V262.093Z" fill="#F1F0FF" fill-opacity="0.1" mask="url(#path-35-inside-16_0_1)"/>
<mask id="path-37-inside-17_0_1" fill="white">
<path d="M123.271 142.579H242.786V262.093H123.271V142.579Z"/>
</mask>
<path d="M123.271 142.579H242.786V262.093H123.271V142.579Z" fill="#F2F4F7" fill-opacity="0.14"/>
<path d="M242.786 262.093V263.338H244.031V262.093H242.786ZM242.786 142.579H241.541V262.093H242.786H244.031V142.579H242.786ZM242.786 262.093V260.849H123.271V262.093V263.338H242.786V262.093Z" fill="#F1F0FF" fill-opacity="0.1" mask="url(#path-37-inside-17_0_1)"/>
<mask id="path-39-inside-18_0_1" fill="white">
<path d="M242.786 142.579H362.301V262.093H242.786V142.579Z"/>
</mask>
<path d="M362.301 262.093V263.338H363.545V262.093H362.301ZM362.301 142.579H361.056V262.093H362.301H363.545V142.579H362.301ZM362.301 262.093V260.849H242.786V262.093V263.338H362.301V262.093Z" fill="#F1F0FF" fill-opacity="0.1" mask="url(#path-39-inside-18_0_1)"/>
<mask id="path-41-inside-19_0_1" fill="white">
<path d="M362.301 142.579H481.815V262.093H362.301V142.579Z"/>
</mask>
<path d="M481.815 262.093V263.338H483.06V262.093H481.815ZM481.815 142.579H480.57V262.093H481.815H483.06V142.579H481.815ZM481.815 262.093V260.849H362.301V262.093V263.338H481.815V262.093Z" fill="#F1F0FF" fill-opacity="0.1" mask="url(#path-41-inside-19_0_1)"/>
<mask id="path-43-inside-20_0_1" fill="white">
<path d="M481.814 142.579H601.329V262.093H481.814V142.579Z"/>
</mask>
<path d="M601.329 262.093V263.338H602.574V262.093H601.329ZM601.329 142.579H600.084V262.093H601.329H602.574V142.579H601.329ZM601.329 262.093V260.849H481.814V262.093V263.338H601.329V262.093Z" fill="#F1F0FF" fill-opacity="0.1" mask="url(#path-43-inside-20_0_1)"/>
<mask id="path-45-inside-21_0_1" fill="white">
<path d="M601.329 142.579H720.843V262.093H601.329V142.579Z"/>
</mask>
<path d="M720.843 262.093V263.338H722.088V262.093H720.843ZM720.843 142.579H719.599V262.093H720.843H722.088V142.579H720.843ZM720.843 262.093V260.849H601.329V262.093V263.338H720.843V262.093Z" fill="#F1F0FF" fill-opacity="0.1" mask="url(#path-45-inside-21_0_1)"/>
<mask id="path-47-inside-22_0_1" fill="white">
<path d="M720.844 142.579H840.358V262.093H720.844V142.579Z"/>
</mask>
<path d="M840.358 262.093V263.338H841.603V262.093H840.358ZM840.358 142.579H839.113V262.093H840.358H841.603V142.579H840.358ZM840.358 262.093V260.849H720.844V262.093V263.338H840.358V262.093Z" fill="#F1F0FF" fill-opacity="0.1" mask="url(#path-47-inside-22_0_1)"/>
<mask id="path-49-inside-23_0_1" fill="white">
<path d="M840.358 142.579H959.873V262.093H840.358V142.579Z"/>
</mask>
<path d="M959.873 262.093V263.338H961.118V262.093H959.873ZM959.873 142.579H958.628V262.093H959.873H961.118V142.579H959.873ZM959.873 262.093V260.849H840.358V262.093V263.338H959.873V262.093Z" fill="#F1F0FF" fill-opacity="0.1" mask="url(#path-49-inside-23_0_1)"/>
<mask id="path-51-inside-24_0_1" fill="white">
<path d="M959.872 142.579H1079.39V262.093H959.872V142.579Z"/>
</mask>
<path d="M1079.39 262.093V263.338H1080.63V262.093H1079.39ZM1079.39 142.579H1078.14V262.093H1079.39H1080.63V142.579H1079.39ZM1079.39 262.093V260.849H959.872V262.093V263.338H1079.39V262.093Z" fill="#F1F0FF" fill-opacity="0.1" mask="url(#path-51-inside-24_0_1)"/>
<mask id="path-53-inside-25_0_1" fill="white">
<path d="M1079.39 142.579H1198.9V262.093H1079.39V142.579Z"/>
</mask>
<path d="M1198.9 262.093V263.338H1200.15V262.093H1198.9ZM1198.9 142.579H1197.66V262.093H1198.9H1200.15V142.579H1198.9ZM1198.9 262.093V260.849H1079.39V262.093V263.338H1198.9V262.093Z" fill="#F1F0FF" fill-opacity="0.1" mask="url(#path-53-inside-25_0_1)"/>
<mask id="path-55-inside-26_0_1" fill="white">
<path d="M1198.9 142.579H1318.41V262.093H1198.9V142.579Z"/>
</mask>
<path d="M1198.9 142.579H1318.41V262.093H1198.9V142.579Z" fill="#F2F4F7" fill-opacity="0.14"/>
<path d="M1318.41 262.093V263.338H1319.66V262.093H1318.41ZM1318.41 142.579H1317.17V262.093H1318.41H1319.66V142.579H1318.41ZM1318.41 262.093V260.849H1198.9V262.093V263.338H1318.41V262.093Z" fill="#F1F0FF" fill-opacity="0.1" mask="url(#path-55-inside-26_0_1)"/>
<mask id="path-57-inside-27_0_1" fill="white">
<path d="M1318.42 142.579H1437.93V262.093H1318.42V142.579Z"/>
</mask>
<path d="M1437.93 262.093V263.338H1439.18V262.093H1437.93ZM1437.93 142.579H1436.69V262.093H1437.93H1439.18V142.579H1437.93ZM1437.93 262.093V260.849H1318.42V262.093V263.338H1437.93V262.093Z" fill="#F1F0FF" fill-opacity="0.1" mask="url(#path-57-inside-27_0_1)"/>
<mask id="path-59-inside-28_0_1" fill="white">
<path d="M1437.93 142.579H1557.44V262.093H1437.93V142.579Z"/>
</mask>
<path d="M1557.44 262.093V263.338H1558.69V262.093H1557.44ZM1557.44 142.579H1556.2V262.093H1557.44H1558.69V142.579H1557.44ZM1557.44 262.093V260.849H1437.93V262.093V263.338H1557.44V262.093Z" fill="#F1F0FF" fill-opacity="0.1" mask="url(#path-59-inside-28_0_1)"/>
<mask id="path-61-inside-29_0_1" fill="white">
<path d="M-115.757 262.094H3.75755V381.608H-115.757V262.094Z"/>
</mask>
<path d="M3.75755 381.608V382.853H5.00249V381.608H3.75755ZM3.75755 262.094H2.5126V381.608H3.75755H5.00249V262.094H3.75755ZM3.75755 381.608V380.363H-115.757V381.608V382.853H3.75755V381.608Z" fill="#F1F0FF" fill-opacity="0.1" mask="url(#path-61-inside-29_0_1)"/>
<mask id="path-63-inside-30_0_1" fill="white">
<path d="M3.75684 262.094H123.271V381.608H3.75684V262.094Z"/>
</mask>
<path d="M123.271 381.608V382.853H124.516V381.608H123.271ZM123.271 262.094H122.026V381.608H123.271H124.516V262.094H123.271ZM123.271 381.608V380.363H3.75684V381.608V382.853H123.271V381.608Z" fill="#F1F0FF" fill-opacity="0.1" mask="url(#path-63-inside-30_0_1)"/>
<mask id="path-65-inside-31_0_1" fill="white">
<path d="M123.271 262.094H242.786V381.608H123.271V262.094Z"/>
</mask>
<path d="M242.786 381.608V382.853H244.031V381.608H242.786ZM242.786 262.094H241.541V381.608H242.786H244.031V262.094H242.786ZM242.786 381.608V380.363H123.271V381.608V382.853H242.786V381.608Z" fill="#F1F0FF" fill-opacity="0.1" mask="url(#path-65-inside-31_0_1)"/>
<mask id="path-67-inside-32_0_1" fill="white">
<path d="M242.786 262.094H362.301V381.608H242.786V262.094Z"/>
</mask>
<path d="M362.301 381.608V382.853H363.545V381.608H362.301ZM362.301 262.094H361.056V381.608H362.301H363.545V262.094H362.301ZM362.301 381.608V380.363H242.786V381.608V382.853H362.301V381.608Z" fill="#F1F0FF" fill-opacity="0.1" mask="url(#path-67-inside-32_0_1)"/>
<mask id="path-69-inside-33_0_1" fill="white">
<path d="M362.301 262.094H481.815V381.608H362.301V262.094Z"/>
</mask>
<path d="M362.301 262.094H481.815V381.608H362.301V262.094Z" fill="#F2F4F7" fill-opacity="0.14"/>
<path d="M481.815 381.608V382.853H483.06V381.608H481.815ZM481.815 262.094H480.57V381.608H481.815H483.06V262.094H481.815ZM481.815 381.608V380.363H362.301V381.608V382.853H481.815V381.608Z" fill="#F1F0FF" fill-opacity="0.1" mask="url(#path-69-inside-33_0_1)"/>
<mask id="path-71-inside-34_0_1" fill="white">
<path d="M481.814 262.094H601.329V381.608H481.814V262.094Z"/>
</mask>
<path d="M601.329 381.608V382.853H602.574V381.608H601.329ZM601.329 262.094H600.084V381.608H601.329H602.574V262.094H601.329ZM601.329 381.608V380.363H481.814V381.608V382.853H601.329V381.608Z" fill="#F1F0FF" fill-opacity="0.1" mask="url(#path-71-inside-34_0_1)"/>
<mask id="path-73-inside-35_0_1" fill="white">
<path d="M601.329 262.094H720.843V381.608H601.329V262.094Z"/>
</mask>
<path d="M720.843 381.608V382.853H722.088V381.608H720.843ZM720.843 262.094H719.599V381.608H720.843H722.088V262.094H720.843ZM720.843 381.608V380.363H601.329V381.608V382.853H720.843V381.608Z" fill="#F1F0FF" fill-opacity="0.1" mask="url(#path-73-inside-35_0_1)"/>
<mask id="path-75-inside-36_0_1" fill="white">
<path d="M720.844 262.094H840.358V381.608H720.844V262.094Z"/>
</mask>
<path d="M840.358 381.608V382.853H841.603V381.608H840.358ZM840.358 262.094H839.113V381.608H840.358H841.603V262.094H840.358ZM840.358 381.608V380.363H720.844V381.608V382.853H840.358V381.608Z" fill="#F1F0FF" fill-opacity="0.1" mask="url(#path-75-inside-36_0_1)"/>
<mask id="path-77-inside-37_0_1" fill="white">
<path d="M840.358 262.094H959.873V381.608H840.358V262.094Z"/>
</mask>
<path d="M840.358 262.094H959.873V381.608H840.358V262.094Z" fill="#F2F4F7" fill-opacity="0.14"/>
<path d="M959.873 381.608V382.853H961.118V381.608H959.873ZM959.873 262.094H958.628V381.608H959.873H961.118V262.094H959.873ZM959.873 381.608V380.363H840.358V381.608V382.853H959.873V381.608Z" fill="#F1F0FF" fill-opacity="0.1" mask="url(#path-77-inside-37_0_1)"/>
<mask id="path-79-inside-38_0_1" fill="white">
<path d="M959.872 262.094H1079.39V381.608H959.872V262.094Z"/>
</mask>
<path d="M1079.39 381.608V382.853H1080.63V381.608H1079.39ZM1079.39 262.094H1078.14V381.608H1079.39H1080.63V262.094H1079.39ZM1079.39 381.608V380.363H959.872V381.608V382.853H1079.39V381.608Z" fill="#F1F0FF" fill-opacity="0.1" mask="url(#path-79-inside-38_0_1)"/>
<mask id="path-81-inside-39_0_1" fill="white">
<path d="M1079.39 262.094H1198.9V381.608H1079.39V262.094Z"/>
</mask>
<path d="M1198.9 381.608V382.853H1200.15V381.608H1198.9ZM1198.9 262.094H1197.66V381.608H1198.9H1200.15V262.094H1198.9ZM1198.9 381.608V380.363H1079.39V381.608V382.853H1198.9V381.608Z" fill="#F1F0FF" fill-opacity="0.1" mask="url(#path-81-inside-39_0_1)"/>
<mask id="path-83-inside-40_0_1" fill="white">
<path d="M1198.9 262.094H1318.41V381.608H1198.9V262.094Z"/>
</mask>
<path d="M1318.41 381.608V382.853H1319.66V381.608H1318.41ZM1318.41 262.094H1317.17V381.608H1318.41H1319.66V262.094H1318.41ZM1318.41 381.608V380.363H1198.9V381.608V382.853H1318.41V381.608Z" fill="#F1F0FF" fill-opacity="0.1" mask="url(#path-83-inside-40_0_1)"/>
<mask id="path-85-inside-41_0_1" fill="white">
<path d="M1318.42 262.094H1437.93V381.608H1318.42V262.094Z"/>
</mask>
<path d="M1437.93 381.608V382.853H1439.18V381.608H1437.93ZM1437.93 262.094H1436.69V381.608H1437.93H1439.18V262.094H1437.93ZM1437.93 381.608V380.363H1318.42V381.608V382.853H1437.93V381.608Z" fill="#F1F0FF" fill-opacity="0.1" mask="url(#path-85-inside-41_0_1)"/>
<mask id="path-87-inside-42_0_1" fill="white">
<path d="M1437.93 262.094H1557.44V381.608H1437.93V262.094Z"/>
</mask>
<path d="M1557.44 381.608V382.853H1558.69V381.608H1557.44ZM1557.44 262.094H1556.2V381.608H1557.44H1558.69V262.094H1557.44ZM1557.44 381.608V380.363H1437.93V381.608V382.853H1557.44V381.608Z" fill="#F1F0FF" fill-opacity="0.1" mask="url(#path-87-inside-42_0_1)"/>
<mask id="path-89-inside-43_0_1" fill="white">
<path d="M-115.757 381.608H3.75755V501.122H-115.757V381.608Z"/>
</mask>
<path d="M3.75755 501.122V502.367H5.00249V501.122H3.75755ZM3.75755 381.608H2.5126V501.122H3.75755H5.00249V381.608H3.75755ZM3.75755 501.122V499.877H-115.757V501.122V502.367H3.75755V501.122Z" fill="#F1F0FF" fill-opacity="0.1" mask="url(#path-89-inside-43_0_1)"/>
<mask id="path-91-inside-44_0_1" fill="white">
<path d="M3.75684 381.608H123.271V501.122H3.75684V381.608Z"/>
</mask>
<path d="M123.271 501.122V502.367H124.516V501.122H123.271ZM123.271 381.608H122.026V501.122H123.271H124.516V381.608H123.271ZM123.271 501.122V499.877H3.75684V501.122V502.367H123.271V501.122Z" fill="#F1F0FF" fill-opacity="0.1" mask="url(#path-91-inside-44_0_1)"/>
<mask id="path-93-inside-45_0_1" fill="white">
<path d="M123.271 381.608H242.786V501.122H123.271V381.608Z"/>
</mask>
<path d="M242.786 501.122V502.367H244.031V501.122H242.786ZM242.786 381.608H241.541V501.122H242.786H244.031V381.608H242.786ZM242.786 501.122V499.877H123.271V501.122V502.367H242.786V501.122Z" fill="#F1F0FF" fill-opacity="0.1" mask="url(#path-93-inside-45_0_1)"/>
<mask id="path-95-inside-46_0_1" fill="white">
<path d="M242.786 381.608H362.301V501.122H242.786V381.608Z"/>
</mask>
<path d="M362.301 501.122V502.367H363.545V501.122H362.301ZM362.301 381.608H361.056V501.122H362.301H363.545V381.608H362.301ZM362.301 501.122V499.877H242.786V501.122V502.367H362.301V501.122Z" fill="#F1F0FF" fill-opacity="0.1" mask="url(#path-95-inside-46_0_1)"/>
<mask id="path-97-inside-47_0_1" fill="white">
<path d="M362.301 381.608H481.815V501.122H362.301V381.608Z"/>
</mask>
<path d="M481.815 501.122V502.367H483.06V501.122H481.815ZM481.815 381.608H480.57V501.122H481.815H483.06V381.608H481.815ZM481.815 501.122V499.877H362.301V501.122V502.367H481.815V501.122Z" fill="#F1F0FF" fill-opacity="0.1" mask="url(#path-97-inside-47_0_1)"/>
<mask id="path-99-inside-48_0_1" fill="white">
<path d="M481.814 381.608H601.329V501.122H481.814V381.608Z"/>
</mask>
<path d="M601.329 501.122V502.367H602.574V501.122H601.329ZM601.329 381.608H600.084V501.122H601.329H602.574V381.608H601.329ZM601.329 501.122V499.877H481.814V501.122V502.367H601.329V501.122Z" fill="#F1F0FF" fill-opacity="0.1" mask="url(#path-99-inside-48_0_1)"/>
<mask id="path-101-inside-49_0_1" fill="white">
<path d="M601.329 381.608H720.843V501.122H601.329V381.608Z"/>
</mask>
<path d="M720.843 501.122V502.367H722.088V501.122H720.843ZM720.843 381.608H719.599V501.122H720.843H722.088V381.608H720.843ZM720.843 501.122V499.877H601.329V501.122V502.367H720.843V501.122Z" fill="#F1F0FF" fill-opacity="0.1" mask="url(#path-101-inside-49_0_1)"/>
<mask id="path-103-inside-50_0_1" fill="white">
<path d="M720.844 381.608H840.358V501.122H720.844V381.608Z"/>
</mask>
<path d="M840.358 501.122V502.367H841.603V501.122H840.358ZM840.358 381.608H839.113V501.122H840.358H841.603V381.608H840.358ZM840.358 501.122V499.877H720.844V501.122V502.367H840.358V501.122Z" fill="#F1F0FF" fill-opacity="0.1" mask="url(#path-103-inside-50_0_1)"/>
<mask id="path-105-inside-51_0_1" fill="white">
<path d="M840.358 381.608H959.873V501.122H840.358V381.608Z"/>
</mask>
<path d="M959.873 501.122V502.367H961.118V501.122H959.873ZM959.873 381.608H958.628V501.122H959.873H961.118V381.608H959.873ZM959.873 501.122V499.877H840.358V501.122V502.367H959.873V501.122Z" fill="#F1F0FF" fill-opacity="0.1" mask="url(#path-105-inside-51_0_1)"/>
<mask id="path-107-inside-52_0_1" fill="white">
<path d="M959.872 381.608H1079.39V501.122H959.872V381.608Z"/>
</mask>
<path d="M1079.39 501.122V502.367H1080.63V501.122H1079.39ZM1079.39 381.608H1078.14V501.122H1079.39H1080.63V381.608H1079.39ZM1079.39 501.122V499.877H959.872V501.122V502.367H1079.39V501.122Z" fill="#F1F0FF" fill-opacity="0.1" mask="url(#path-107-inside-52_0_1)"/>
<mask id="path-109-inside-53_0_1" fill="white">
<path d="M1079.39 381.608H1198.9V501.122H1079.39V381.608Z"/>
</mask>
<path d="M1198.9 501.122V502.367H1200.15V501.122H1198.9ZM1198.9 381.608H1197.66V501.122H1198.9H1200.15V381.608H1198.9ZM1198.9 501.122V499.877H1079.39V501.122V502.367H1198.9V501.122Z" fill="#F1F0FF" fill-opacity="0.1" mask="url(#path-109-inside-53_0_1)"/>
<mask id="path-111-inside-54_0_1" fill="white">
<path d="M1198.9 381.608H1318.41V501.122H1198.9V381.608Z"/>
</mask>
<path d="M1198.9 381.608H1318.41V501.122H1198.9V381.608Z" fill="#F2F4F7" fill-opacity="0.14"/>
<path d="M1318.41 501.122V502.367H1319.66V501.122H1318.41ZM1318.41 381.608H1317.17V501.122H1318.41H1319.66V381.608H1318.41ZM1318.41 501.122V499.877H1198.9V501.122V502.367H1318.41V501.122Z" fill="#F1F0FF" fill-opacity="0.1" mask="url(#path-111-inside-54_0_1)"/>
<mask id="path-113-inside-55_0_1" fill="white">
<path d="M1318.42 381.608H1437.93V501.122H1318.42V381.608Z"/>
</mask>
<path d="M1437.93 501.122V502.367H1439.18V501.122H1437.93ZM1437.93 381.608H1436.69V501.122H1437.93H1439.18V381.608H1437.93ZM1437.93 501.122V499.877H1318.42V501.122V502.367H1437.93V501.122Z" fill="#F1F0FF" fill-opacity="0.1" mask="url(#path-113-inside-55_0_1)"/>
<mask id="path-115-inside-56_0_1" fill="white">
<path d="M1437.93 381.608H1557.44V501.122H1437.93V381.608Z"/>
</mask>
<path d="M1557.44 501.122V502.367H1558.69V501.122H1557.44ZM1557.44 381.608H1556.2V501.122H1557.44H1558.69V381.608H1557.44ZM1557.44 501.122V499.877H1437.93V501.122V502.367H1557.44V501.122Z" fill="#F1F0FF" fill-opacity="0.1" mask="url(#path-115-inside-56_0_1)"/>
<mask id="path-117-inside-57_0_1" fill="white">
<path d="M-115.757 501.123H3.75755V620.637H-115.757V501.123Z"/>
</mask>
<path d="M3.75755 620.637V621.882H5.00249V620.637H3.75755ZM3.75755 501.123H2.5126V620.637H3.75755H5.00249V501.123H3.75755ZM3.75755 620.637V619.392H-115.757V620.637V621.882H3.75755V620.637Z" fill="#F1F0FF" fill-opacity="0.1" mask="url(#path-117-inside-57_0_1)"/>
<mask id="path-119-inside-58_0_1" fill="white">
<path d="M3.75684 501.123H123.271V620.637H3.75684V501.123Z"/>
</mask>
<path d="M123.271 620.637V621.882H124.516V620.637H123.271ZM123.271 501.123H122.026V620.637H123.271H124.516V501.123H123.271ZM123.271 620.637V619.392H3.75684V620.637V621.882H123.271V620.637Z" fill="#F1F0FF" fill-opacity="0.1" mask="url(#path-119-inside-58_0_1)"/>
<mask id="path-121-inside-59_0_1" fill="white">
<path d="M123.271 501.123H242.786V620.637H123.271V501.123Z"/>
</mask>
<path d="M242.786 620.637V621.882H244.031V620.637H242.786ZM242.786 501.123H241.541V620.637H242.786H244.031V501.123H242.786ZM242.786 620.637V619.392H123.271V620.637V621.882H242.786V620.637Z" fill="#F1F0FF" fill-opacity="0.1" mask="url(#path-121-inside-59_0_1)"/>
<mask id="path-123-inside-60_0_1" fill="white">
<path d="M242.786 501.123H362.301V620.637H242.786V501.123Z"/>
</mask>
<path d="M362.301 620.637V621.882H363.545V620.637H362.301ZM362.301 501.123H361.056V620.637H362.301H363.545V501.123H362.301ZM362.301 620.637V619.392H242.786V620.637V621.882H362.301V620.637Z" fill="#F1F0FF" fill-opacity="0.1" mask="url(#path-123-inside-60_0_1)"/>
<mask id="path-125-inside-61_0_1" fill="white">
<path d="M362.301 501.123H481.815V620.637H362.301V501.123Z"/>
</mask>
<path d="M481.815 620.637V621.882H483.06V620.637H481.815ZM481.815 501.123H480.57V620.637H481.815H483.06V501.123H481.815ZM481.815 620.637V619.392H362.301V620.637V621.882H481.815V620.637Z" fill="#F1F0FF" fill-opacity="0.1" mask="url(#path-125-inside-61_0_1)"/>
<mask id="path-127-inside-62_0_1" fill="white">
<path d="M481.814 501.123H601.329V620.637H481.814V501.123Z"/>
</mask>
<path d="M481.814 501.123H601.329V620.637H481.814V501.123Z" fill="#F2F4F7" fill-opacity="0.14"/>
<path d="M601.329 620.637V621.882H602.574V620.637H601.329ZM601.329 501.123H600.084V620.637H601.329H602.574V501.123H601.329ZM601.329 620.637V619.392H481.814V620.637V621.882H601.329V620.637Z" fill="#F1F0FF" fill-opacity="0.1" mask="url(#path-127-inside-62_0_1)"/>
<mask id="path-129-inside-63_0_1" fill="white">
<path d="M601.329 501.123H720.843V620.637H601.329V501.123Z"/>
</mask>
<path d="M720.843 620.637V621.882H722.088V620.637H720.843ZM720.843 501.123H719.599V620.637H720.843H722.088V501.123H720.843ZM720.843 620.637V619.392H601.329V620.637V621.882H720.843V620.637Z" fill="#F1F0FF" fill-opacity="0.1" mask="url(#path-129-inside-63_0_1)"/>
<mask id="path-131-inside-64_0_1" fill="white">
<path d="M720.844 501.123H840.358V620.637H720.844V501.123Z"/>
</mask>
<path d="M840.358 620.637V621.882H841.603V620.637H840.358ZM840.358 501.123H839.113V620.637H840.358H841.603V501.123H840.358ZM840.358 620.637V619.392H720.844V620.637V621.882H840.358V620.637Z" fill="#F1F0FF" fill-opacity="0.1" mask="url(#path-131-inside-64_0_1)"/>
<mask id="path-133-inside-65_0_1" fill="white">
<path d="M840.358 501.123H959.873V620.637H840.358V501.123Z"/>
</mask>
<path d="M959.873 620.637V621.882H961.118V620.637H959.873ZM959.873 501.123H958.628V620.637H959.873H961.118V501.123H959.873ZM959.873 620.637V619.392H840.358V620.637V621.882H959.873V620.637Z" fill="#F1F0FF" fill-opacity="0.1" mask="url(#path-133-inside-65_0_1)"/>
<mask id="path-135-inside-66_0_1" fill="white">
<path d="M959.872 501.123H1079.39V620.637H959.872V501.123Z"/>
</mask>
<path d="M1079.39 620.637V621.882H1080.63V620.637H1079.39ZM1079.39 501.123H1078.14V620.637H1079.39H1080.63V501.123H1079.39ZM1079.39 620.637V619.392H959.872V620.637V621.882H1079.39V620.637Z" fill="#F1F0FF" fill-opacity="0.1" mask="url(#path-135-inside-66_0_1)"/>
<mask id="path-137-inside-67_0_1" fill="white">
<path d="M1079.39 501.123H1198.9V620.637H1079.39V501.123Z"/>
</mask>
<path d="M1198.9 620.637V621.882H1200.15V620.637H1198.9ZM1198.9 501.123H1197.66V620.637H1198.9H1200.15V501.123H1198.9ZM1198.9 620.637V619.392H1079.39V620.637V621.882H1198.9V620.637Z" fill="#F1F0FF" fill-opacity="0.1" mask="url(#path-137-inside-67_0_1)"/>
<mask id="path-139-inside-68_0_1" fill="white">
<path d="M1198.9 501.123H1318.41V620.637H1198.9V501.123Z"/>
</mask>
<path d="M1318.41 620.637V621.882H1319.66V620.637H1318.41ZM1318.41 501.123H1317.17V620.637H1318.41H1319.66V501.123H1318.41ZM1318.41 620.637V619.392H1198.9V620.637V621.882H1318.41V620.637Z" fill="#F1F0FF" fill-opacity="0.1" mask="url(#path-139-inside-68_0_1)"/>
<mask id="path-141-inside-69_0_1" fill="white">
<path d="M1318.42 501.123H1437.93V620.637H1318.42V501.123Z"/>
</mask>
<path d="M1437.93 620.637V621.882H1439.18V620.637H1437.93ZM1437.93 501.123H1436.69V620.637H1437.93H1439.18V501.123H1437.93ZM1437.93 620.637V619.392H1318.42V620.637V621.882H1437.93V620.637Z" fill="#F1F0FF" fill-opacity="0.1" mask="url(#path-141-inside-69_0_1)"/>
<mask id="path-143-inside-70_0_1" fill="white">
<path d="M1437.93 501.123H1557.44V620.637H1437.93V501.123Z"/>
</mask>
<path d="M1557.44 620.637V621.882H1558.69V620.637H1557.44ZM1557.44 501.123H1556.2V620.637H1557.44H1558.69V501.123H1557.44ZM1557.44 620.637V619.392H1437.93V620.637V621.882H1557.44V620.637Z" fill="#F1F0FF" fill-opacity="0.1" mask="url(#path-143-inside-70_0_1)"/>
<mask id="path-145-inside-71_0_1" fill="white">
<path d="M-115.757 620.637H3.75755V740.151H-115.757V620.637Z"/>
</mask>
<path d="M3.75755 740.151V741.396H5.00249V740.151H3.75755ZM3.75755 620.637H2.5126V740.151H3.75755H5.00249V620.637H3.75755ZM3.75755 740.151V738.906H-115.757V740.151V741.396H3.75755V740.151Z" fill="#F1F0FF" fill-opacity="0.1" mask="url(#path-145-inside-71_0_1)"/>
<mask id="path-147-inside-72_0_1" fill="white">
<path d="M3.75684 620.637H123.271V740.151H3.75684V620.637Z"/>
</mask>
<path d="M123.271 740.151V741.396H124.516V740.151H123.271ZM123.271 620.637H122.026V740.151H123.271H124.516V620.637H123.271ZM123.271 740.151V738.906H3.75684V740.151V741.396H123.271V740.151Z" fill="#F1F0FF" fill-opacity="0.1" mask="url(#path-147-inside-72_0_1)"/>
<mask id="path-149-inside-73_0_1" fill="white">
<path d="M123.271 620.637H242.786V740.151H123.271V620.637Z"/>
</mask>
<path d="M123.271 620.637H242.786V740.151H123.271V620.637Z" fill="#F2F4F7" fill-opacity="0.14"/>
<path d="M242.786 740.151V741.396H244.031V740.151H242.786ZM242.786 620.637H241.541V740.151H242.786H244.031V620.637H242.786ZM242.786 740.151V738.906H123.271V740.151V741.396H242.786V740.151Z" fill="#F1F0FF" fill-opacity="0.1" mask="url(#path-149-inside-73_0_1)"/>
<mask id="path-151-inside-74_0_1" fill="white">
<path d="M242.786 620.637H362.301V740.151H242.786V620.637Z"/>
</mask>
<path d="M362.301 740.151V741.396H363.545V740.151H362.301ZM362.301 620.637H361.056V740.151H362.301H363.545V620.637H362.301ZM362.301 740.151V738.906H242.786V740.151V741.396H362.301V740.151Z" fill="#F1F0FF" fill-opacity="0.1" mask="url(#path-151-inside-74_0_1)"/>
<mask id="path-153-inside-75_0_1" fill="white">
<path d="M362.301 620.637H481.815V740.151H362.301V620.637Z"/>
</mask>
<path d="M481.815 740.151V741.396H483.06V740.151H481.815ZM481.815 620.637H480.57V740.151H481.815H483.06V620.637H481.815ZM481.815 740.151V738.906H362.301V740.151V741.396H481.815V740.151Z" fill="#F1F0FF" fill-opacity="0.1" mask="url(#path-153-inside-75_0_1)"/>
<mask id="path-155-inside-76_0_1" fill="white">
<path d="M481.814 620.637H601.329V740.151H481.814V620.637Z"/>
</mask>
<path d="M601.329 740.151V741.396H602.574V740.151H601.329ZM601.329 620.637H600.084V740.151H601.329H602.574V620.637H601.329ZM601.329 740.151V738.906H481.814V740.151V741.396H601.329V740.151Z" fill="#F1F0FF" fill-opacity="0.1" mask="url(#path-155-inside-76_0_1)"/>
<mask id="path-157-inside-77_0_1" fill="white">
<path d="M601.329 620.637H720.843V740.151H601.329V620.637Z"/>
</mask>
<path d="M720.843 740.151V741.396H722.088V740.151H720.843ZM720.843 620.637H719.599V740.151H720.843H722.088V620.637H720.843ZM720.843 740.151V738.906H601.329V740.151V741.396H720.843V740.151Z" fill="#F1F0FF" fill-opacity="0.1" mask="url(#path-157-inside-77_0_1)"/>
<mask id="path-159-inside-78_0_1" fill="white">
<path d="M720.844 620.637H840.358V740.151H720.844V620.637Z"/>
</mask>
<path d="M840.358 740.151V741.396H841.603V740.151H840.358ZM840.358 620.637H839.113V740.151H840.358H841.603V620.637H840.358ZM840.358 740.151V738.906H720.844V740.151V741.396H840.358V740.151Z" fill="#F1F0FF" fill-opacity="0.1" mask="url(#path-159-inside-78_0_1)"/>
<mask id="path-161-inside-79_0_1" fill="white">
<path d="M840.358 620.637H959.873V740.151H840.358V620.637Z"/>
</mask>
<path d="M840.358 620.637H959.873V740.151H840.358V620.637Z" fill="#F2F4F7" fill-opacity="0.14"/>
<path d="M959.873 740.151V741.396H961.118V740.151H959.873ZM959.873 620.637H958.628V740.151H959.873H961.118V620.637H959.873ZM959.873 740.151V738.906H840.358V740.151V741.396H959.873V740.151Z" fill="#F1F0FF" fill-opacity="0.1" mask="url(#path-161-inside-79_0_1)"/>
<mask id="path-163-inside-80_0_1" fill="white">
<path d="M959.872 620.637H1079.39V740.151H959.872V620.637Z"/>
</mask>
<path d="M1079.39 740.151V741.396H1080.63V740.151H1079.39ZM1079.39 620.637H1078.14V740.151H1079.39H1080.63V620.637H1079.39ZM1079.39 740.151V738.906H959.872V740.151V741.396H1079.39V740.151Z" fill="#F1F0FF" fill-opacity="0.1" mask="url(#path-163-inside-80_0_1)"/>
<mask id="path-165-inside-81_0_1" fill="white">
<path d="M1079.39 620.637H1198.9V740.151H1079.39V620.637Z"/>
</mask>
<path d="M1198.9 740.151V741.396H1200.15V740.151H1198.9ZM1198.9 620.637H1197.66V740.151H1198.9H1200.15V620.637H1198.9ZM1198.9 740.151V738.906H1079.39V740.151V741.396H1198.9V740.151Z" fill="#F1F0FF" fill-opacity="0.1" mask="url(#path-165-inside-81_0_1)"/>
<mask id="path-167-inside-82_0_1" fill="white">
<path d="M1198.9 620.637H1318.41V740.151H1198.9V620.637Z"/>
</mask>
<path d="M1318.41 740.151V741.396H1319.66V740.151H1318.41ZM1318.41 620.637H1317.17V740.151H1318.41H1319.66V620.637H1318.41ZM1318.41 740.151V738.906H1198.9V740.151V741.396H1318.41V740.151Z" fill="#F1F0FF" fill-opacity="0.1" mask="url(#path-167-inside-82_0_1)"/>
<mask id="path-169-inside-83_0_1" fill="white">
<path d="M1318.42 620.637H1437.93V740.151H1318.42V620.637Z"/>
</mask>
<path d="M1437.93 740.151V741.396H1439.18V740.151H1437.93ZM1437.93 620.637H1436.69V740.151H1437.93H1439.18V620.637H1437.93ZM1437.93 740.151V738.906H1318.42V740.151V741.396H1437.93V740.151Z" fill="#F1F0FF" fill-opacity="0.1" mask="url(#path-169-inside-83_0_1)"/>
<mask id="path-171-inside-84_0_1" fill="white">
<path d="M1437.93 620.637H1557.44V740.151H1437.93V620.637Z"/>
</mask>
<path d="M1557.44 740.151V741.396H1558.69V740.151H1557.44ZM1557.44 620.637H1556.2V740.151H1557.44H1558.69V620.637H1557.44ZM1557.44 740.151V738.906H1437.93V740.151V741.396H1557.44V740.151Z" fill="#F1F0FF" fill-opacity="0.1" mask="url(#path-171-inside-84_0_1)"/>
<mask id="path-173-inside-85_0_1" fill="white">
<path d="M-115.757 740.151H3.75755V859.666H-115.757V740.151Z"/>
</mask>
<path d="M-115.757 740.151H3.75755V859.666H-115.757V740.151Z" fill="#F2F4F7" fill-opacity="0.14"/>
<path d="M3.75755 859.666V860.91H5.00249V859.666H3.75755ZM3.75755 740.151H2.5126V859.666H3.75755H5.00249V740.151H3.75755ZM3.75755 859.666V858.421H-115.757V859.666V860.91H3.75755V859.666Z" fill="#F1F0FF" fill-opacity="0.1" mask="url(#path-173-inside-85_0_1)"/>
<mask id="path-175-inside-86_0_1" fill="white">
<path d="M3.75781 740.151H123.272V859.666H3.75781V740.151Z"/>
</mask>
<path d="M123.272 859.666V860.91H124.517V859.666H123.272ZM123.272 740.151H122.027V859.666H123.272H124.517V740.151H123.272ZM123.272 859.666V858.421H3.75781V859.666V860.91H123.272V859.666Z" fill="#F1F0FF" fill-opacity="0.1" mask="url(#path-175-inside-86_0_1)"/>
<mask id="path-177-inside-87_0_1" fill="white">
<path d="M123.271 740.151H242.786V859.666H123.271V740.151Z"/>
</mask>
<path d="M242.786 859.666V860.91H244.031V859.666H242.786ZM242.786 740.151H241.541V859.666H242.786H244.031V740.151H242.786ZM242.786 859.666V858.421H123.271V859.666V860.91H242.786V859.666Z" fill="#F1F0FF" fill-opacity="0.1" mask="url(#path-177-inside-87_0_1)"/>
<mask id="path-179-inside-88_0_1" fill="white">
<path d="M242.786 740.151H362.301V859.665H242.786V740.151Z"/>
</mask>
<path d="M362.301 859.665V860.91H363.545V859.665H362.301ZM362.301 740.151H361.056V859.665H362.301H363.545V740.151H362.301ZM362.301 859.665V858.42H242.786V859.665V860.91H362.301V859.665Z" fill="#F1F0FF" fill-opacity="0.1" mask="url(#path-179-inside-88_0_1)"/>
<mask id="path-181-inside-89_0_1" fill="white">
<path d="M362.301 740.151H481.815V859.666H362.301V740.151Z"/>
</mask>
<path d="M481.815 859.666V860.91H483.06V859.666H481.815ZM481.815 740.151H480.57V859.666H481.815H483.06V740.151H481.815ZM481.815 859.666V858.421H362.301V859.666V860.91H481.815V859.666Z" fill="#F1F0FF" fill-opacity="0.1" mask="url(#path-181-inside-89_0_1)"/>
<mask id="path-183-inside-90_0_1" fill="white">
<path d="M481.814 740.151H601.329V859.665H481.814V740.151Z"/>
</mask>
<path d="M601.329 859.665V860.91H602.574V859.665H601.329ZM601.329 740.151H600.084V859.665H601.329H602.574V740.151H601.329ZM601.329 859.665V858.42H481.814V859.665V860.91H601.329V859.665Z" fill="#F1F0FF" fill-opacity="0.1" mask="url(#path-183-inside-90_0_1)"/>
<mask id="path-185-inside-91_0_1" fill="white">
<path d="M601.329 740.151H720.843V859.665H601.329V740.151Z"/>
</mask>
<path d="M720.843 859.665V860.91H722.088V859.665H720.843ZM720.843 740.151H719.599V859.665H720.843H722.088V740.151H720.843ZM720.843 859.665V858.42H601.329V859.665V860.91H720.843V859.665Z" fill="#F1F0FF" fill-opacity="0.1" mask="url(#path-185-inside-91_0_1)"/>
<mask id="path-187-inside-92_0_1" fill="white">
<path d="M720.844 740.151H840.358V859.666H720.844V740.151Z"/>
</mask>
<path d="M840.358 859.666V860.91H841.603V859.666H840.358ZM840.358 740.151H839.113V859.666H840.358H841.603V740.151H840.358ZM840.358 859.666V858.421H720.844V859.666V860.91H840.358V859.666Z" fill="#F1F0FF" fill-opacity="0.1" mask="url(#path-187-inside-92_0_1)"/>
<mask id="path-189-inside-93_0_1" fill="white">
<path d="M840.358 740.151H959.873V859.666H840.358V740.151Z"/>
</mask>
<path d="M959.873 859.666V860.91H961.118V859.666H959.873ZM959.873 740.151H958.628V859.666H959.873H961.118V740.151H959.873ZM959.873 859.666V858.421H840.358V859.666V860.91H959.873V859.666Z" fill="#F1F0FF" fill-opacity="0.1" mask="url(#path-189-inside-93_0_1)"/>
<mask id="path-191-inside-94_0_1" fill="white">
<path d="M959.872 740.151H1079.39V859.666H959.872V740.151Z"/>
</mask>
<path d="M1079.39 859.666V860.91H1080.63V859.666H1079.39ZM1079.39 740.151H1078.14V859.666H1079.39H1080.63V740.151H1079.39ZM1079.39 859.666V858.421H959.872V859.666V860.91H1079.39V859.666Z" fill="#F1F0FF" fill-opacity="0.1" mask="url(#path-191-inside-94_0_1)"/>
<mask id="path-193-inside-95_0_1" fill="white">
<path d="M1079.39 740.151H1198.9V859.666H1079.39V740.151Z"/>
</mask>
<path d="M1198.9 859.666V860.91H1200.15V859.666H1198.9ZM1198.9 740.151H1197.66V859.666H1198.9H1200.15V740.151H1198.9ZM1198.9 859.666V858.421H1079.39V859.666V860.91H1198.9V859.666Z" fill="#F1F0FF" fill-opacity="0.1" mask="url(#path-193-inside-95_0_1)"/>
<mask id="path-195-inside-96_0_1" fill="white">
<path d="M1198.9 740.151H1318.41V859.666H1198.9V740.151Z"/>
</mask>
<path d="M1318.41 859.666V860.91H1319.66V859.666H1318.41ZM1318.41 740.151H1317.17V859.666H1318.41H1319.66V740.151H1318.41ZM1318.41 859.666V858.421H1198.9V859.666V860.91H1318.41V859.666Z" fill="#F1F0FF" fill-opacity="0.1" mask="url(#path-195-inside-96_0_1)"/>
<mask id="path-197-inside-97_0_1" fill="white">
<path d="M1318.42 740.151H1437.93V859.665H1318.42V740.151Z"/>
</mask>
<path d="M1437.93 859.665V860.91H1439.18V859.665H1437.93ZM1437.93 740.151H1436.69V859.665H1437.93H1439.18V740.151H1437.93ZM1437.93 859.665V858.42H1318.42V859.665V860.91H1437.93V859.665Z" fill="#F1F0FF" fill-opacity="0.1" mask="url(#path-197-inside-97_0_1)"/>
<mask id="path-199-inside-98_0_1" fill="white">
<path d="M1437.93 740.151H1557.44V859.665H1437.93V740.151Z"/>
</mask>
<path d="M1437.93 740.151H1557.44V859.665H1437.93V740.151Z" fill="#F2F4F7" fill-opacity="0.14"/>
<path d="M1557.44 859.665V860.91H1558.69V859.665H1557.44ZM1557.44 740.151H1556.2V859.665H1557.44H1558.69V740.151H1557.44ZM1557.44 859.665V858.42H1437.93V859.665V860.91H1557.44V859.665Z" fill="#F1F0FF" fill-opacity="0.1" mask="url(#path-199-inside-98_0_1)"/>
<mask id="path-201-inside-99_0_1" fill="white">
<path d="M-115.757 859.666H3.75755V979.18H-115.757V859.666Z"/>
</mask>
<path d="M3.75755 979.18V980.425H5.00249V979.18H3.75755ZM3.75755 859.666H2.5126V979.18H3.75755H5.00249V859.666H3.75755ZM3.75755 979.18V977.935H-115.757V979.18V980.425H3.75755V979.18Z" fill="#F1F0FF" fill-opacity="0.1" mask="url(#path-201-inside-99_0_1)"/>
<mask id="path-203-inside-100_0_1" fill="white">
<path d="M3.75781 859.666H123.272V979.18H3.75781V859.666Z"/>
</mask>
<path d="M123.272 979.18V980.425H124.517V979.18H123.272ZM123.272 859.666H122.027V979.18H123.272H124.517V859.666H123.272ZM123.272 979.18V977.935H3.75781V979.18V980.425H123.272V979.18Z" fill="#F1F0FF" fill-opacity="0.1" mask="url(#path-203-inside-100_0_1)"/>
<mask id="path-205-inside-101_0_1" fill="white">
<path d="M123.271 859.666H242.786V979.18H123.271V859.666Z"/>
</mask>
<path d="M242.786 979.18V980.425H244.031V979.18H242.786ZM242.786 859.666H241.541V979.18H242.786H244.031V859.666H242.786ZM242.786 979.18V977.935H123.271V979.18V980.425H242.786V979.18Z" fill="#F1F0FF" fill-opacity="0.1" mask="url(#path-205-inside-101_0_1)"/>
<mask id="path-207-inside-102_0_1" fill="white">
<path d="M242.786 859.666H362.301V979.18H242.786V859.666Z"/>
</mask>
<path d="M362.301 979.18V980.425H363.545V979.18H362.301ZM362.301 859.666H361.056V979.18H362.301H363.545V859.666H362.301ZM362.301 979.18V977.935H242.786V979.18V980.425H362.301V979.18Z" fill="#F1F0FF" fill-opacity="0.1" mask="url(#path-207-inside-102_0_1)"/>
<mask id="path-209-inside-103_0_1" fill="white">
<path d="M362.301 859.666H481.815V979.18H362.301V859.666Z"/>
</mask>
<path d="M481.815 979.18V980.425H483.06V979.18H481.815ZM481.815 859.666H480.57V979.18H481.815H483.06V859.666H481.815ZM481.815 979.18V977.935H362.301V979.18V980.425H481.815V979.18Z" fill="#F1F0FF" fill-opacity="0.1" mask="url(#path-209-inside-103_0_1)"/>
<mask id="path-211-inside-104_0_1" fill="white">
<path d="M481.814 859.666H601.329V979.18H481.814V859.666Z"/>
</mask>
<path d="M481.814 859.666H601.329V979.18H481.814V859.666Z" fill="#F2F4F7" fill-opacity="0.14"/>
<path d="M601.329 979.18V980.425H602.574V979.18H601.329ZM601.329 859.666H600.084V979.18H601.329H602.574V859.666H601.329ZM601.329 979.18V977.935H481.814V979.18V980.425H601.329V979.18Z" fill="#F1F0FF" fill-opacity="0.1" mask="url(#path-211-inside-104_0_1)"/>
<mask id="path-213-inside-105_0_1" fill="white">
<path d="M601.329 859.666H720.843V979.18H601.329V859.666Z"/>
</mask>
<path d="M720.843 979.18V980.425H722.088V979.18H720.843ZM720.843 859.666H719.599V979.18H720.843H722.088V859.666H720.843ZM720.843 979.18V977.935H601.329V979.18V980.425H720.843V979.18Z" fill="#F1F0FF" fill-opacity="0.1" mask="url(#path-213-inside-105_0_1)"/>
<mask id="path-215-inside-106_0_1" fill="white">
<path d="M720.844 859.666H840.358V979.18H720.844V859.666Z"/>
</mask>
<path d="M840.358 979.18V980.425H841.603V979.18H840.358ZM840.358 859.666H839.113V979.18H840.358H841.603V859.666H840.358ZM840.358 979.18V977.935H720.844V979.18V980.425H840.358V979.18Z" fill="#F1F0FF" fill-opacity="0.1" mask="url(#path-215-inside-106_0_1)"/>
<mask id="path-217-inside-107_0_1" fill="white">
<path d="M840.358 859.666H959.873V979.18H840.358V859.666Z"/>
</mask>
<path d="M959.873 979.18V980.425H961.118V979.18H959.873ZM959.873 859.666H958.628V979.18H959.873H961.118V859.666H959.873ZM959.873 979.18V977.935H840.358V979.18V980.425H959.873V979.18Z" fill="#F1F0FF" fill-opacity="0.1" mask="url(#path-217-inside-107_0_1)"/>
<mask id="path-219-inside-108_0_1" fill="white">
<path d="M959.872 859.666H1079.39V979.18H959.872V859.666Z"/>
</mask>
<path d="M1079.39 979.18V980.425H1080.63V979.18H1079.39ZM1079.39 859.666H1078.14V979.18H1079.39H1080.63V859.666H1079.39ZM1079.39 979.18V977.935H959.872V979.18V980.425H1079.39V979.18Z" fill="#F1F0FF" fill-opacity="0.1" mask="url(#path-219-inside-108_0_1)"/>
<mask id="path-221-inside-109_0_1" fill="white">
<path d="M1079.39 859.666H1198.9V979.18H1079.39V859.666Z"/>
</mask>
<path d="M1198.9 979.18V980.425H1200.15V979.18H1198.9ZM1198.9 859.666H1197.66V979.18H1198.9H1200.15V859.666H1198.9ZM1198.9 979.18V977.935H1079.39V979.18V980.425H1198.9V979.18Z" fill="#F1F0FF" fill-opacity="0.1" mask="url(#path-221-inside-109_0_1)"/>
<mask id="path-223-inside-110_0_1" fill="white">
<path d="M1198.9 859.666H1318.41V979.18H1198.9V859.666Z"/>
</mask>
<path d="M1198.9 859.666H1318.41V979.18H1198.9V859.666Z" fill="#F2F4F7" fill-opacity="0.14"/>
<path d="M1318.41 979.18V980.425H1319.66V979.18H1318.41ZM1318.41 859.666H1317.17V979.18H1318.41H1319.66V859.666H1318.41ZM1318.41 979.18V977.935H1198.9V979.18V980.425H1318.41V979.18Z" fill="#F1F0FF" fill-opacity="0.1" mask="url(#path-223-inside-110_0_1)"/>
<mask id="path-225-inside-111_0_1" fill="white">
<path d="M1318.42 859.666H1437.93V979.18H1318.42V859.666Z"/>
</mask>
<path d="M1437.93 979.18V980.425H1439.18V979.18H1437.93ZM1437.93 859.666H1436.69V979.18H1437.93H1439.18V859.666H1437.93ZM1437.93 979.18V977.935H1318.42V979.18V980.425H1437.93V979.18Z" fill="#F1F0FF" fill-opacity="0.1" mask="url(#path-225-inside-111_0_1)"/>
<mask id="path-227-inside-112_0_1" fill="white">
<path d="M1437.93 859.666H1557.44V979.18H1437.93V859.666Z"/>
</mask>
<path d="M1557.44 979.18V980.425H1558.69V979.18H1557.44ZM1557.44 859.666H1556.2V979.18H1557.44H1558.69V859.666H1557.44ZM1557.44 979.18V977.935H1437.93V979.18V980.425H1557.44V979.18Z" fill="#F1F0FF" fill-opacity="0.1" mask="url(#path-227-inside-112_0_1)"/>
<mask id="path-229-inside-113_0_1" fill="white">
<path d="M-115.757 979.18H3.75755V1098.69H-115.757V979.18Z"/>
</mask>
<path d="M3.75755 1098.69V1099.94H5.00249V1098.69H3.75755ZM3.75755 979.18H2.5126V1098.69H3.75755H5.00249V979.18H3.75755ZM3.75755 1098.69V1097.45H-115.757V1098.69V1099.94H3.75755V1098.69Z" fill="#F1F0FF" fill-opacity="0.1" mask="url(#path-229-inside-113_0_1)"/>
<mask id="path-231-inside-114_0_1" fill="white">
<path d="M3.75684 979.18H123.271V1098.69H3.75684V979.18Z"/>
</mask>
<path d="M123.271 1098.69V1099.94H124.516V1098.69H123.271ZM123.271 979.18H122.026V1098.69H123.271H124.516V979.18H123.271ZM123.271 1098.69V1097.45H3.75684V1098.69V1099.94H123.271V1098.69Z" fill="#F1F0FF" fill-opacity="0.1" mask="url(#path-231-inside-114_0_1)"/>
<mask id="path-233-inside-115_0_1" fill="white">
<path d="M123.271 979.18H242.786V1098.69H123.271V979.18Z"/>
</mask>
<path d="M123.271 979.18H242.786V1098.69H123.271V979.18Z" fill="#F2F4F7" fill-opacity="0.14"/>
<path d="M242.786 1098.69V1099.94H244.031V1098.69H242.786ZM242.786 979.18H241.541V1098.69H242.786H244.031V979.18H242.786ZM242.786 1098.69V1097.45H123.271V1098.69V1099.94H242.786V1098.69Z" fill="#F1F0FF" fill-opacity="0.1" mask="url(#path-233-inside-115_0_1)"/>
<mask id="path-235-inside-116_0_1" fill="white">
<path d="M242.786 979.18H362.301V1098.69H242.786V979.18Z"/>
</mask>
<path d="M362.301 1098.69V1099.94H363.545V1098.69H362.301ZM362.301 979.18H361.056V1098.69H362.301H363.545V979.18H362.301ZM362.301 1098.69V1097.45H242.786V1098.69V1099.94H362.301V1098.69Z" fill="#F1F0FF" fill-opacity="0.1" mask="url(#path-235-inside-116_0_1)"/>
<mask id="path-237-inside-117_0_1" fill="white">
<path d="M362.301 979.18H481.815V1098.69H362.301V979.18Z"/>
</mask>
<path d="M481.815 1098.69V1099.94H483.06V1098.69H481.815ZM481.815 979.18H480.57V1098.69H481.815H483.06V979.18H481.815ZM481.815 1098.69V1097.45H362.301V1098.69V1099.94H481.815V1098.69Z" fill="#F1F0FF" fill-opacity="0.1" mask="url(#path-237-inside-117_0_1)"/>
<mask id="path-239-inside-118_0_1" fill="white">
<path d="M481.814 979.18H601.329V1098.69H481.814V979.18Z"/>
</mask>
<path d="M601.329 1098.69V1099.94H602.574V1098.69H601.329ZM601.329 979.18H600.084V1098.69H601.329H602.574V979.18H601.329ZM601.329 1098.69V1097.45H481.814V1098.69V1099.94H601.329V1098.69Z" fill="#F1F0FF" fill-opacity="0.1" mask="url(#path-239-inside-118_0_1)"/>
<mask id="path-241-inside-119_0_1" fill="white">
<path d="M601.329 979.18H720.843V1098.69H601.329V979.18Z"/>
</mask>
<path d="M720.843 1098.69V1099.94H722.088V1098.69H720.843ZM720.843 979.18H719.599V1098.69H720.843H722.088V979.18H720.843ZM720.843 1098.69V1097.45H601.329V1098.69V1099.94H720.843V1098.69Z" fill="#F1F0FF" fill-opacity="0.1" mask="url(#path-241-inside-119_0_1)"/>
<mask id="path-243-inside-120_0_1" fill="white">
<path d="M720.844 979.18H840.358V1098.69H720.844V979.18Z"/>
</mask>
<path d="M840.358 1098.69V1099.94H841.603V1098.69H840.358ZM840.358 979.18H839.113V1098.69H840.358H841.603V979.18H840.358ZM840.358 1098.69V1097.45H720.844V1098.69V1099.94H840.358V1098.69Z" fill="#F1F0FF" fill-opacity="0.1" mask="url(#path-243-inside-120_0_1)"/>
<mask id="path-245-inside-121_0_1" fill="white">
<path d="M840.358 979.18H959.873V1098.69H840.358V979.18Z"/>
</mask>
<path d="M840.358 979.18H959.873V1098.69H840.358V979.18Z" fill="#F2F4F7" fill-opacity="0.14"/>
<path d="M959.873 1098.69V1099.94H961.118V1098.69H959.873ZM959.873 979.18H958.628V1098.69H959.873H961.118V979.18H959.873ZM959.873 1098.69V1097.45H840.358V1098.69V1099.94H959.873V1098.69Z" fill="#F1F0FF" fill-opacity="0.1" mask="url(#path-245-inside-121_0_1)"/>
<mask id="path-247-inside-122_0_1" fill="white">
<path d="M959.872 979.18H1079.39V1098.69H959.872V979.18Z"/>
</mask>
<path d="M1079.39 1098.69V1099.94H1080.63V1098.69H1079.39ZM1079.39 979.18H1078.14V1098.69H1079.39H1080.63V979.18H1079.39ZM1079.39 1098.69V1097.45H959.872V1098.69V1099.94H1079.39V1098.69Z" fill="#F1F0FF" fill-opacity="0.1" mask="url(#path-247-inside-122_0_1)"/>
<mask id="path-249-inside-123_0_1" fill="white">
<path d="M1079.39 979.18H1198.9V1098.69H1079.39V979.18Z"/>
</mask>
<path d="M1198.9 1098.69V1099.94H1200.15V1098.69H1198.9ZM1198.9 979.18H1197.66V1098.69H1198.9H1200.15V979.18H1198.9ZM1198.9 1098.69V1097.45H1079.39V1098.69V1099.94H1198.9V1098.69Z" fill="#F1F0FF" fill-opacity="0.1" mask="url(#path-249-inside-123_0_1)"/>
<mask id="path-251-inside-124_0_1" fill="white">
<path d="M1198.9 979.18H1318.41V1098.69H1198.9V979.18Z"/>
</mask>
<path d="M1318.41 1098.69V1099.94H1319.66V1098.69H1318.41ZM1318.41 979.18H1317.17V1098.69H1318.41H1319.66V979.18H1318.41ZM1318.41 1098.69V1097.45H1198.9V1098.69V1099.94H1318.41V1098.69Z" fill="#F1F0FF" fill-opacity="0.1" mask="url(#path-251-inside-124_0_1)"/>
<mask id="path-253-inside-125_0_1" fill="white">
<path d="M1318.42 979.18H1437.93V1098.69H1318.42V979.18Z"/>
</mask>
<path d="M1437.93 1098.69V1099.94H1439.18V1098.69H1437.93ZM1437.93 979.18H1436.69V1098.69H1437.93H1439.18V979.18H1437.93ZM1437.93 1098.69V1097.45H1318.42V1098.69V1099.94H1437.93V1098.69Z" fill="#F1F0FF" fill-opacity="0.1" mask="url(#path-253-inside-125_0_1)"/>
<mask id="path-255-inside-126_0_1" fill="white">
<path d="M1437.93 979.18H1557.44V1098.69H1437.93V979.18Z"/>
</mask>
<path d="M1557.44 1098.69V1099.94H1558.69V1098.69H1557.44ZM1557.44 979.18H1556.2V1098.69H1557.44H1558.69V979.18H1557.44ZM1557.44 1098.69V1097.45H1437.93V1098.69V1099.94H1557.44V1098.69Z" fill="#F1F0FF" fill-opacity="0.1" mask="url(#path-255-inside-126_0_1)"/>
</g>
<rect x="-473.678" y="23.6874" width="2389.04" height="1791.47" stroke="#F1F0FF" stroke-opacity="0.1" stroke-width="1.24494"/>
</g>
</g>
<g opacity="0.8">
<g opacity="0.2" filter="url(#filter2_f_0_1)">
<circle cx="1202.84" cy="816.484" r="237.164" fill="#FC4FF6"/>
</g>
<g opacity="0.2" filter="url(#filter3_f_0_1)">
<ellipse cx="246.736" cy="781.389" rx="246.736" ry="245.672" fill="#8B83FF"/>
</g>
<g opacity="0.2" filter="url(#filter4_f_0_1)">
<circle cx="709.896" cy="688.331" r="248.331" fill="#64C8FF"/>
</g>
</g>
<g opacity="0.2" filter="url(#filter5_f_0_1)">
<circle cx="1202.84" cy="89.4843" r="237.164" fill="#64C8FF"/>
</g>
<g opacity="0.2" filter="url(#filter6_f_0_1)">
<ellipse cx="246.736" cy="54.3889" rx="246.736" ry="245.672" fill="#8B83FF"/>
</g>
<g opacity="0.2" filter="url(#filter7_f_0_1)">
<circle cx="709.896" cy="-38.6691" r="248.331" fill="#64C8FF"/>
</g>
<defs>
<filter id="filter0_f_0_1" x="-473.056" y="-9.30319" width="1266.11" height="1266.11" filterUnits="userSpaceOnUse" color-interpolation-filters="sRGB">
<feFlood flood-opacity="0" result="BackgroundImageFix"/>
<feBlend mode="normal" in="SourceGraphic" in2="BackgroundImageFix" result="shape"/>
<feGaussianBlur stdDeviation="248.988" result="effect1_foregroundBlur_0_1"/>
</filter>
<filter id="filter1_f_0_1" x="627.474" y="-581.977" width="1266.11" height="1266.11" filterUnits="userSpaceOnUse" color-interpolation-filters="sRGB">
<feFlood flood-opacity="0" result="BackgroundImageFix"/>
<feBlend mode="normal" in="SourceGraphic" in2="BackgroundImageFix" result="shape"/>
<feGaussianBlur stdDeviation="248.988" result="effect1_foregroundBlur_0_1"/>
</filter>
<filter id="filter2_f_0_1" x="752.969" y="366.617" width="899.734" height="899.734" filterUnits="userSpaceOnUse" color-interpolation-filters="sRGB">
<feFlood flood-opacity="0" result="BackgroundImageFix"/>
<feBlend mode="normal" in="SourceGraphic" in2="BackgroundImageFix" result="shape"/>
<feGaussianBlur stdDeviation="106.352" result="effect1_foregroundBlur_0_1"/>
</filter>
<filter id="filter3_f_0_1" x="-212.703" y="323.014" width="918.877" height="916.75" filterUnits="userSpaceOnUse" color-interpolation-filters="sRGB">
<feFlood flood-opacity="0" result="BackgroundImageFix"/>
<feBlend mode="normal" in="SourceGraphic" in2="BackgroundImageFix" result="shape"/>
<feGaussianBlur stdDeviation="106.352" result="effect1_foregroundBlur_0_1"/>
</filter>
<filter id="filter4_f_0_1" x="195.687" y="174.121" width="1028.42" height="1028.42" filterUnits="userSpaceOnUse" color-interpolation-filters="sRGB">
<feFlood flood-opacity="0" result="BackgroundImageFix"/>
<feBlend mode="normal" in="SourceGraphic" in2="BackgroundImageFix" result="shape"/>
<feGaussianBlur stdDeviation="132.939" result="effect1_foregroundBlur_0_1"/>
</filter>
<filter id="filter5_f_0_1" x="752.969" y="-360.383" width="899.734" height="899.734" filterUnits="userSpaceOnUse" color-interpolation-filters="sRGB">
<feFlood flood-opacity="0" result="BackgroundImageFix"/>
<feBlend mode="normal" in="SourceGraphic" in2="BackgroundImageFix" result="shape"/>
<feGaussianBlur stdDeviation="106.352" result="effect1_foregroundBlur_0_1"/>
</filter>
<filter id="filter6_f_0_1" x="-212.703" y="-403.986" width="918.877" height="916.75" filterUnits="userSpaceOnUse" color-interpolation-filters="sRGB">
<feFlood flood-opacity="0" result="BackgroundImageFix"/>
<feBlend mode="normal" in="SourceGraphic" in2="BackgroundImageFix" result="shape"/>
<feGaussianBlur stdDeviation="106.352" result="effect1_foregroundBlur_0_1"/>
</filter>
<filter id="filter7_f_0_1" x="195.687" y="-552.879" width="1028.42" height="1028.42" filterUnits="userSpaceOnUse" color-interpolation-filters="sRGB">
<feFlood flood-opacity="0" result="BackgroundImageFix"/>
<feBlend mode="normal" in="SourceGraphic" in2="BackgroundImageFix" result="shape"/>
<feGaussianBlur stdDeviation="132.939" result="effect1_foregroundBlur_0_1"/>
</filter>
<radialGradient id="paint0_radial_0_1" cx="0" cy="0" r="1" gradientUnits="userSpaceOnUse" gradientTransform="translate(896.358 -0.000177645) rotate(90) scale(1490.2 935.683)">
<stop/>
<stop offset="0.953125" stop-opacity="0"/>
</radialGradient>
<clipPath id="clip0_0_1">
<rect width="1552.44" height="1061.94" fill="white" transform="translate(-56 23.0649)"/>
</clipPath>
<clipPath id="clip1_0_1">
<rect x="-474.3" y="23.0649" width="2390.29" height="1792.72" fill="white"/>
</clipPath>
</defs>
</svg>
