<svg width="20" height="24" viewBox="0 0 20 24" fill="none" xmlns="http://www.w3.org/2000/svg">
<path d="M9.17763 13.3937C9.14777 13.8913 8.50274 14.0642 8.22807 13.6481L6.61677 11.2059C6.26231 10.6691 5.7877 10.2222 5.23057 9.90072C4.67343 9.57922 4.04908 9.39192 3.40701 9.35366L0.487959 9.1788C-0.00962713 9.14892 -0.182483 8.50381 0.233498 8.22914L2.67543 6.61782C3.21216 6.26335 3.65895 5.78872 3.98038 5.23155C4.30182 4.67438 4.48907 4.04999 4.52729 3.40785L4.70197 0.488534C4.70799 0.379704 4.74823 0.275556 4.81694 0.190953C4.88565 0.106349 4.97932 0.0456091 5.08459 0.0174015C5.18986 -0.0108061 5.30136 -0.00504106 5.40317 0.0338737C5.50497 0.0727863 5.59189 0.142863 5.65152 0.234102L7.26283 2.67635C7.61711 3.21304 8.09148 3.65986 8.64836 3.98142C9.20524 4.30297 9.82933 4.49043 10.4712 4.52895L13.3916 4.70343C13.5005 4.70946 13.6046 4.7497 13.6892 4.81843C13.7738 4.88715 13.8345 4.98084 13.8627 5.08612C13.891 5.1914 13.8852 5.30291 13.8463 5.40472C13.8074 5.50653 13.7373 5.59346 13.6461 5.65309L11.2042 7.26442C10.6675 7.6187 10.2208 8.09309 9.8993 8.65001C9.57781 9.20692 9.3904 9.83107 9.35193 10.473L9.17763 13.3937ZM16.4162 19.0197C16.4124 19.085 16.3881 19.1474 16.3468 19.1981C16.3056 19.2488 16.2494 19.2852 16.1862 19.3021C16.1231 19.319 16.0562 19.3156 15.9951 19.2923C15.934 19.2691 15.8818 19.2272 15.8459 19.1725L14.8792 17.7075C14.4476 17.0545 13.735 16.6431 12.9538 16.5957L11.2018 16.4909C11.1365 16.4871 11.0741 16.4629 11.0234 16.4216C10.9728 16.3803 10.9364 16.3241 10.9194 16.2609C10.9025 16.1978 10.9059 16.1309 10.9292 16.0698C10.9524 16.0087 10.9944 15.9565 11.049 15.9206L12.5139 14.9539C12.8359 14.7413 13.104 14.4566 13.297 14.1224C13.4899 13.7882 13.6024 13.4136 13.6254 13.0284L13.7301 11.2762C13.7338 11.2109 13.7581 11.1485 13.7994 11.0978C13.8407 11.0472 13.8969 11.0108 13.96 10.9938C14.0232 10.9769 14.09 10.9803 14.1511 11.0036C14.2122 11.0269 14.2644 11.0688 14.3003 11.1234L15.2671 12.5885C15.4796 12.9106 15.7643 13.1787 16.0985 13.3717C16.4327 13.5647 16.8072 13.6772 17.1924 13.7002L18.9444 13.805C19.0097 13.8088 19.0721 13.8331 19.1228 13.8743C19.1735 13.9156 19.2099 13.9718 19.2268 14.035C19.2437 14.0981 19.2403 14.165 19.217 14.2261C19.1938 14.2872 19.1519 14.3394 19.0972 14.3754L17.6324 15.3421C17.3103 15.5547 17.0422 15.8393 16.8493 16.1736C16.6563 16.5078 16.5439 16.8823 16.5208 17.2676L16.4162 19.0197ZM7.02041 23.0937C7.01731 23.1368 7.00086 23.1779 6.97336 23.2112C6.94585 23.2445 6.90866 23.2684 6.86695 23.2795C6.82523 23.2907 6.78107 23.2886 6.7406 23.2735C6.70013 23.2584 6.66537 23.2311 6.64114 23.1954L5.99692 22.2196C5.70939 21.7832 5.23376 21.5086 4.71217 21.4777L3.5451 21.4076C3.50203 21.4045 3.46099 21.3881 3.42769 21.3606C3.39439 21.3331 3.3705 21.2959 3.35932 21.2541C3.34814 21.2124 3.35024 21.1683 3.36532 21.1278C3.3804 21.0873 3.40771 21.0526 3.44346 21.0283L4.41913 20.3841C4.63411 20.2423 4.81308 20.0524 4.94183 19.8294C5.07058 19.6063 5.14556 19.3563 5.16083 19.0993L5.23085 17.9321C5.23395 17.889 5.2504 17.848 5.2779 17.8147C5.30541 17.7814 5.3426 17.7575 5.38432 17.7463C5.42603 17.7351 5.47019 17.7372 5.51066 17.7523C5.55113 17.7674 5.58589 17.7947 5.61012 17.8305L6.25434 18.8063C6.39611 19.0213 6.58604 19.2003 6.80906 19.329C7.03207 19.4578 7.28204 19.5328 7.5391 19.5481L8.70478 19.6186C8.74785 19.6217 8.78889 19.6381 8.82219 19.6656C8.85548 19.6931 8.87938 19.7303 8.89056 19.7721C8.90174 19.8138 8.89964 19.8579 8.88456 19.8984C8.86948 19.9389 8.84217 19.9736 8.80642 19.9979L7.83075 20.6421C7.39448 20.9296 7.11989 21.4053 7.08905 21.9269L7.02041 23.0937Z" fill="#6E64FF"/>
</svg>
